<svg xmlns="http://www.w3.org/2000/svg" xmlns:xlink="http://www.w3.org/1999/xlink" width="37.089" height="82.448" viewBox="0 0 37.089 82.448">
  <defs>
    <clipPath id="clip-path">
      <rect id="Rectángulo_361871" data-name="Rectángulo 361871" width="37.076" height="44.448" transform="translate(0 0)" fill="none"/>
    </clipPath>
    <clipPath id="clip-path-2">
      <rect id="Rectángulo_361875" data-name="Rectángulo 361875" width="37.089" height="44.448" fill="none"/>
    </clipPath>
    <clipPath id="clip-path-3">
      <rect id="Rectángulo_361874" data-name="Rectángulo 361874" width="37.089" height="44.448" transform="translate(0 0)" fill="none"/>
    </clipPath>
    <clipPath id="clip-path-4">
      <rect id="Rectángulo_361873" data-name="Rectángulo 361873" width="2.677" height="28.634" transform="translate(27.013 15.814)" fill="none"/>
    </clipPath>
    <clipPath id="clip-path-5">
      <rect id="Rectángulo_361872" data-name="Rectángulo 361872" width="2.677" height="28.633" transform="translate(27.013 15.814)" fill="none"/>
    </clipPath>
  </defs>
  <g id="Grupo_1045407" data-name="Grupo 1045407" transform="translate(12653 12789)">
    <g id="Grupo_1045398" data-name="Grupo 1045398" transform="translate(-12653 -12789)">
      <g id="Grupo_1026299" data-name="Grupo 1026299" clip-path="url(#clip-path)">
        <path id="Trazado_767444" data-name="Trazado 767444" d="M.026,1.573c.084-.277.35-.365.652-.188l26.2,15.127a1.374,1.374,0,0,1,.5.537l2.113-1.236a1.388,1.388,0,0,0-.49-.522L2.8.164a1.484,1.484,0,0,0-1.357,0L.678.6a1.53,1.53,0,0,0-.652.971" fill="#fdc77f"/>
        <path id="Trazado_767445" data-name="Trazado 767445" d="M0,1.777V27.983a1.505,1.505,0,0,0,.674,1.174L25.439,43.45l1.44.835a.729.729,0,0,0,.1.052h.015c.324.115.558-.067.558-.449v-26.2a1.343,1.343,0,0,0-.183-.636,1.36,1.36,0,0,0-.5-.537L.678,1.385c-.3-.178-.569-.089-.652.188a.1.1,0,0,1-.011.053A.766.766,0,0,0,0,1.777" fill="#d9953b"/>
        <path id="Trazado_767446" data-name="Trazado 767446" d="M27,44.342c.026.011.052.021.084.032a.455.455,0,0,0,.115.031.967.967,0,0,0,.177.032c.058,0,.12.011.178.011a1.724,1.724,0,0,0,.365-.042,1.211,1.211,0,0,0,.318-.12L29,43.843a1.493,1.493,0,0,0,.678-1.174v-26.2a1.4,1.4,0,0,0-.188-.652l-2.113,1.236a1.35,1.35,0,0,1,.183.637v26.2c0,.381-.235.564-.558.449" fill="#f4a338"/>
        <path id="Trazado_767447" data-name="Trazado 767447" d="M24.186,38.848v-17.3a.891.891,0,0,0-.4-.7L22.7,20.222c-.223-.129-.4-.025-.4.233v17.3a.891.891,0,0,0,.4.7l1.085.626c.223.129.4.024.4-.233" fill="#fafafa"/>
        <path id="Trazado_767448" data-name="Trazado 767448" d="M20.4,36.662V17.178a.891.891,0,0,0-.4-.7l-1.085-.626c-.223-.129-.4-.024-.4.233V35.57a.891.891,0,0,0,.4.7L20,36.9c.223.129.4.024.4-.233" fill="#fafafa"/>
        <path id="Trazado_767449" data-name="Trazado 767449" d="M16.618,34.478V22.464a.891.891,0,0,0-.4-.7l-1.085-.627c-.223-.128-.4-.024-.4.233V33.386a.891.891,0,0,0,.4.7l1.085.626c.223.129.4.024.4-.233" fill="#fafafa"/>
        <path id="Trazado_767450" data-name="Trazado 767450" d="M12.835,32.3V18.237a.891.891,0,0,0-.4-.7l-1.086-.626c-.222-.129-.4-.025-.4.233V31.207a.891.891,0,0,0,.4.7l1.085.626c.223.129.4.024.4-.233" fill="#fafafa"/>
        <path id="Trazado_767451" data-name="Trazado 767451" d="M9.046,30.113V21.944a.891.891,0,0,0-.4-.7l-1.085-.626c-.223-.129-.4-.024-.4.233v8.165a.891.891,0,0,0,.4.7l1.085.628c.222.129.4.025.4-.233" fill="#fafafa"/>
        <path id="Trazado_767452" data-name="Trazado 767452" d="M5.267,27.929V12.813a.891.891,0,0,0-.4-.7l-1.092-.625c-.222-.129-.4-.024-.4.233V26.837a.891.891,0,0,0,.4.7l1.085.626c.223.129.4.024.4-.233" fill="#fafafa"/>
        <path id="Trazado_767453" data-name="Trazado 767453" d="M27.268,27.693,29.5,26.575l7.571,3.578L35.243,31.42Z" fill="#fdc77f"/>
        <path id="Trazado_767454" data-name="Trazado 767454" d="M26.3,35.519l8.944-4.1-7.975-3.727Z" fill="#d9953b"/>
      </g>
    </g>
    <g id="Grupo_1045399" data-name="Grupo 1045399" transform="translate(-12653 -12751)">
      <g id="Grupo_1026308" data-name="Grupo 1026308" clip-path="url(#clip-path-2)">
        <g id="Grupo_1026307" data-name="Grupo 1026307">
          <g id="Grupo_1026306" data-name="Grupo 1026306" clip-path="url(#clip-path-3)">
            <path id="Trazado_767455" data-name="Trazado 767455" d="M.039,1.573c.084-.277.35-.365.652-.188l26.2,15.127a1.384,1.384,0,0,1,.5.538L29.5,15.813a1.388,1.388,0,0,0-.49-.522L2.815.164a1.484,1.484,0,0,0-1.357,0L.691.6a1.53,1.53,0,0,0-.652.971" fill="#27debf"/>
            <path id="Trazado_767456" data-name="Trazado 767456" d="M.039,1.573c.084-.277.35-.365.652-.188l26.2,15.127a1.384,1.384,0,0,1,.5.538L29.5,15.813a1.388,1.388,0,0,0-.49-.522L2.815.164a1.484,1.484,0,0,0-1.357,0L.691.6a1.53,1.53,0,0,0-.652.971" fill="#a6ffee"/>
            <path id="Trazado_767457" data-name="Trazado 767457" d="M.013,1.777V27.983a1.505,1.505,0,0,0,.674,1.174L25.448,43.45l1.44.835a.729.729,0,0,0,.1.052H27c.324.115.558-.067.558-.449v-26.2a1.343,1.343,0,0,0-.183-.636,1.36,1.36,0,0,0-.5-.537L.678,1.386c-.3-.178-.569-.089-.652.188a.1.1,0,0,1-.011.053A.766.766,0,0,0,0,1.778" fill="#27debf"/>
            <path id="Trazado_767458" data-name="Trazado 767458" d="M27.013,44.342c.026.011.052.021.084.032a.455.455,0,0,0,.115.031.967.967,0,0,0,.177.032c.058,0,.12.011.178.011a1.724,1.724,0,0,0,.365-.042,1.211,1.211,0,0,0,.318-.12l.762-.443a1.493,1.493,0,0,0,.678-1.174v-26.2a1.4,1.4,0,0,0-.188-.652l-2.113,1.236a1.35,1.35,0,0,1,.183.637v26.2c0,.381-.235.564-.558.449" fill="#27debf"/>
            <g id="Grupo_1026305" data-name="Grupo 1026305" opacity="0.15">
              <g id="Grupo_1026304" data-name="Grupo 1026304">
                <g id="Grupo_1026303" data-name="Grupo 1026303" clip-path="url(#clip-path-4)">
                  <g id="Grupo_1026302" data-name="Grupo 1026302">
                    <g id="Grupo_1026301" data-name="Grupo 1026301" clip-path="url(#clip-path-5)">
                      <path id="Trazado_767459" data-name="Trazado 767459" d="M27.013,44.342c.026.011.052.021.084.032a.455.455,0,0,0,.115.031.967.967,0,0,0,.177.032c.058,0,.12.011.178.011a1.724,1.724,0,0,0,.365-.042,1.211,1.211,0,0,0,.318-.12l.762-.443a1.493,1.493,0,0,0,.678-1.174v-26.2a1.4,1.4,0,0,0-.188-.652l-2.113,1.236a1.35,1.35,0,0,1,.183.637v26.2c0,.381-.235.564-.558.449"/>
                    </g>
                  </g>
                </g>
              </g>
            </g>
            <path id="Trazado_767460" data-name="Trazado 767460" d="M23.586,22.069a18.3,18.3,0,0,1,2.15,5.794,16.216,16.216,0,0,1,.289,2.981,11.341,11.341,0,0,1-.289,2.648l-1.47-1.584a8.4,8.4,0,0,0,.215-1.955,12.035,12.035,0,0,0-.215-2.2,13.485,13.485,0,0,0-1.59-4.278A7.642,7.642,0,0,0,20.109,20.7V18.321a10.319,10.319,0,0,1,3.477,3.748" fill="#fafafa"/>
            <path id="Trazado_767461" data-name="Trazado 767461" d="M14.483,21.365a4.884,4.884,0,0,1,2.15-3.311,3.447,3.447,0,0,1,3.477.267V20.7a2.543,2.543,0,0,0-2.567-.191,3.6,3.6,0,0,0-1.589,2.442,8.4,8.4,0,0,0-.215,1.955,12.035,12.035,0,0,0,.215,2.2,13.483,13.483,0,0,0,1.589,4.278,7.617,7.617,0,0,0,2.567,2.773,2.541,2.541,0,0,0,2.567.191,3.6,3.6,0,0,0,1.589-2.442l1.47,1.584a4.884,4.884,0,0,1-2.15,3.311,3.45,3.45,0,0,1-3.476-.267,10.319,10.319,0,0,1-3.477-3.748,18.248,18.248,0,0,1-2.15-5.794,16.216,16.216,0,0,1-.289-2.981,11.341,11.341,0,0,1,.289-2.648" fill="#455a64"/>
            <path id="Trazado_767462" data-name="Trazado 767462" d="M11.47,16.351,3.388,11.685c-.312-.18-.565-.052-.565.286a1.211,1.211,0,0,0,.565.938l8.082,4.666c.312.18.565.052.565-.286a1.211,1.211,0,0,0-.565-.938" fill="#455a64"/>
            <path id="Trazado_767463" data-name="Trazado 767463" d="M11.47,20.33,2.365,15.089c-.312-.18-.565-.052-.565.286a1.211,1.211,0,0,0,.565.938l9.105,5.245c.312.18.565.052.565-.286a1.211,1.211,0,0,0-.565-.938" fill="#fafafa"/>
            <path id="Trazado_767464" data-name="Trazado 767464" d="M11.47,22.824,2.365,17.579c-.312-.18-.565-.052-.565.286a1.211,1.211,0,0,0,.565.938l9.105,5.245c.312.18.565.052.565-.286a1.211,1.211,0,0,0-.565-.938" fill="#fafafa"/>
            <path id="Trazado_767465" data-name="Trazado 767465" d="M11.47,25.313,2.365,20.065c-.312-.18-.565-.052-.565.286a1.211,1.211,0,0,0,.565.938l9.105,5.245c.312.18.565.052.565-.286a1.211,1.211,0,0,0-.565-.938" fill="#fafafa"/>
            <path id="Trazado_767466" data-name="Trazado 767466" d="M11.47,27.8,2.365,22.559c-.312-.18-.565-.052-.565.286a1.211,1.211,0,0,0,.565.938l9.105,5.245c.312.18.565.052.565-.286a1.211,1.211,0,0,0-.565-.938" fill="#fafafa"/>
            <path id="Trazado_767467" data-name="Trazado 767467" d="M27.281,27.144l2.236-1.118L37.088,29.6l-1.832,1.267Z" fill="#a6ffee"/>
            <path id="Trazado_767468" data-name="Trazado 767468" d="M26.312,34.971l8.944-4.1-7.975-3.727Z" fill="#27debf"/>
          </g>
        </g>
      </g>
    </g>
  </g>
</svg>
